<svg xmlns="http://www.w3.org/2000/svg" xmlns:xlink="http://www.w3.org/1999/xlink" width="500" zoomAndPan="magnify" viewBox="0 0 375 374.999991" height="500" preserveAspectRatio="xMidYMid meet" version="1.0"><defs><g/><clipPath id="4f6bc72189"><rect x="0" width="264" y="0" height="375"/></clipPath></defs><rect x="-37.5" width="450" fill="#ffffff" y="-37.499999" height="449.999989" fill-opacity="1"/><rect x="-37.5" width="450" fill="#f4f4f4" y="-37.499999" height="449.999989" fill-opacity="1"/><g transform="matrix(1, 0, 0, 1, 50, 0)"><g clip-path="url(#4f6bc72189)"><g fill="#865f1d" fill-opacity="1"><g transform="translate(0.610954, 293.085667)"><g><path d="M 47.203125 48.21875 C 36.867188 48.21875 29.394531 46.082031 24.78125 41.8125 C 20.175781 37.539062 17.875 33.15625 17.875 28.65625 C 17.875 24.164062 19.164062 20.738281 21.75 18.375 C 24.332031 16.019531 27.195312 14.84375 30.34375 14.84375 C 33.488281 14.84375 36.410156 15.851562 39.109375 17.875 C 41.804688 19.894531 43.15625 23.15625 43.15625 27.65625 C 43.15625 29.675781 42.59375 31.8125 41.46875 34.0625 C 42.820312 34.507812 44.171875 34.785156 45.515625 34.890625 C 46.867188 35.003906 48.109375 35.0625 49.234375 35.0625 C 61.140625 35.0625 70.519531 31.800781 77.375 25.28125 C 84.238281 18.769531 89.1875 10.625 92.21875 0.84375 C 95.25 -8.9375 96.765625 -18.882812 96.765625 -29 L 96.765625 -59.34375 C 79.015625 -61.363281 65.640625 -65.800781 56.640625 -72.65625 C 47.648438 -79.519531 43.15625 -87.109375 43.15625 -95.421875 C 43.15625 -103.515625 47.59375 -111.328125 56.46875 -118.859375 C 65.351562 -126.390625 78.785156 -131.953125 96.765625 -135.546875 C 96.765625 -149.929688 96.203125 -160.71875 95.078125 -167.90625 C 93.960938 -175.101562 92.390625 -180.21875 90.359375 -183.25 C 88.335938 -186.289062 85.53125 -188.488281 81.9375 -189.84375 L 81.9375 -190.515625 C 91.820312 -191.410156 101.316406 -194.890625 110.421875 -200.953125 C 119.523438 -207.023438 125.65625 -214.5625 128.8125 -223.5625 C 118.46875 -223.78125 108.289062 -222.648438 98.28125 -220.171875 C 88.28125 -217.703125 79.289062 -214.164062 71.3125 -209.5625 C 63.332031 -204.957031 56.984375 -199.503906 52.265625 -193.203125 C 47.546875 -186.910156 45.1875 -180.171875 45.1875 -172.984375 C 45.1875 -168.929688 46.253906 -165.835938 48.390625 -163.703125 C 50.523438 -161.566406 53.050781 -160.5 55.96875 -160.5 C 58.445312 -160.5 60.804688 -161.113281 63.046875 -162.34375 C 65.296875 -163.582031 67.207031 -165.78125 68.78125 -168.9375 C 68.332031 -158.59375 64.847656 -149.878906 58.328125 -142.796875 C 51.816406 -135.710938 43.953125 -132.171875 34.734375 -132.171875 C 26.191406 -132.171875 19.109375 -135.035156 13.484375 -140.765625 C 7.867188 -146.503906 5.0625 -154.316406 5.0625 -164.203125 C 5.0625 -175.222656 8.429688 -185.0625 15.171875 -193.71875 C 21.921875 -202.375 30.859375 -209.734375 41.984375 -215.796875 C 53.109375 -221.867188 65.414062 -226.476562 78.90625 -229.625 C 92.394531 -232.769531 105.878906 -234.34375 119.359375 -234.34375 C 131.503906 -234.34375 142.742188 -233.332031 153.078125 -231.3125 L 153.421875 -230.640625 C 145.773438 -226.585938 140.265625 -220.570312 136.890625 -212.59375 C 133.523438 -204.613281 131.445312 -195.285156 130.65625 -184.609375 C 129.875 -173.929688 129.484375 -162.410156 129.484375 -150.046875 L 129.484375 -138.921875 C 142.066406 -139.148438 155.328125 -137.914062 169.265625 -135.21875 C 183.203125 -132.519531 196.015625 -128.25 207.703125 -122.40625 L 207.703125 -184.109375 C 207.703125 -196.691406 206.632812 -205.847656 204.5 -211.578125 C 202.363281 -217.316406 198.597656 -221.082031 193.203125 -222.875 L 193.203125 -223.890625 L 254.90625 -223.890625 L 254.90625 -222.875 C 249.519531 -221.082031 245.757812 -217.316406 243.625 -211.578125 C 241.488281 -205.847656 240.421875 -196.691406 240.421875 -184.109375 L 240.421875 -19.890625 C 240.421875 -6.179688 241.820312 4.4375 244.625 11.96875 C 247.4375 19.5 251.878906 24.390625 257.953125 26.640625 L 257.953125 27.65625 L 190.171875 27.65625 L 190.171875 26.640625 C 196.242188 24.390625 200.679688 19.554688 203.484375 12.140625 C 206.296875 4.722656 207.703125 -5.953125 207.703125 -19.890625 L 207.703125 -69.125 C 207.703125 -79.6875 204.835938 -89.460938 199.109375 -98.453125 C 193.378906 -107.453125 184.722656 -114.59375 173.140625 -119.875 C 161.566406 -125.15625 147.015625 -127.679688 129.484375 -127.453125 L 129.484375 -70.140625 C 138.242188 -71.484375 144.644531 -73.785156 148.6875 -77.046875 C 152.738281 -80.304688 154.765625 -83.394531 154.765625 -86.3125 C 154.765625 -90.8125 152.289062 -93.625 147.34375 -94.75 C 142.40625 -95.875 138.023438 -95.3125 134.203125 -93.0625 C 136.898438 -98.90625 141.054688 -103.234375 146.671875 -106.046875 C 152.296875 -108.859375 157.914062 -110.265625 163.53125 -110.265625 C 169.375 -110.265625 174.546875 -108.800781 179.046875 -105.875 C 183.546875 -102.957031 185.796875 -98.910156 185.796875 -93.734375 C 185.796875 -86.765625 181.351562 -79.679688 172.46875 -72.484375 C 163.59375 -65.296875 149.265625 -60.804688 129.484375 -59.015625 L 129.484375 -39.78125 C 129.484375 -21.351562 131.054688 -7.082031 134.203125 3.03125 C 137.347656 13.144531 142.519531 20.003906 149.71875 23.609375 L 146 31.359375 C 138.132812 28.429688 130.039062 27.53125 121.71875 28.65625 C 121.945312 26.1875 121.273438 24.050781 119.703125 22.25 C 118.128906 20.457031 115.992188 19.5625 113.296875 19.5625 C 107.671875 19.5625 104.859375 22.59375 104.859375 28.65625 C 104.859375 30.007812 105.195312 31.25 105.875 32.375 C 96.882812 35.289062 87.613281 38.660156 78.0625 42.484375 C 68.507812 46.304688 58.222656 48.21875 47.203125 48.21875 Z M 76.203125 -98.125 C 76.203125 -93.175781 78.054688 -88.394531 81.765625 -83.78125 C 85.472656 -79.175781 90.472656 -75.523438 96.765625 -72.828125 L 96.765625 -122.0625 C 89.796875 -119.132812 84.625 -115.535156 81.25 -111.265625 C 77.882812 -106.992188 76.203125 -102.613281 76.203125 -98.125 Z M 76.203125 -98.125 "/></g></g></g></g></g></svg>